<svg xmlns="http://www.w3.org/2000/svg" width="156.16" height="50.74" viewBox="0 0 156.16 50.74" fill="#000"><path d="M15.74,16.29c2.45-1.6,3.84-4.14,3.84-6.75,0-4.52-2.45-8.1-9.66-8.1H0v31.48h10.81c6.96,0,10-4.22,10-8.57,0-3.46-1.86-6.46-5.07-8.06h0ZM6.03,6.33h2.62c4.18,0,5.44,1.65,5.44,3.97,0,2.57-2.07,4.31-5.61,4.31h-2.45s0-8.27,0-8.27ZM9.16,28.02h-3.12v-9.07h3c3.63,0,5.7,1.77,5.7,4.68,0,2.36-1.27,4.39-5.57,4.39Z"></path><path d="M28.57,21.02v-3.42h-5.11v15.32h5.36v-7.22c0-.97,1.48-2.36,3.76-2.36.34,0,.76.04.97.13v-6.04h-.51c-2.36,0-4.01,2.41-4.47,3.59Z"></path><path d="M51.65,22.54c-1.06-3.29-3.88-5.66-7.77-5.66-5.32,0-8.82,3.92-8.48,9.03.34,4.52,3.84,7.72,9.28,7.72,2.95,0,5.28-1.18,7.05-2.83l-2.32-3.04c-1.14,1.06-2.62,1.77-4.47,1.77-1.44,0-2.62-.59-3.29-1.56l10.42-3.97-.42-1.48h0ZM40.89,24.86c.13-2.49,1.52-3.76,3.04-3.76,1.14,0,1.98.55,2.62,1.69,0,0-5.65,2.07-5.66,2.07Z"></path><path d="M61.78,17.18c-2.15,0-3.59.17-5.78.63l.93,4.09c1.56-.38,2.53-.46,3.33-.46,2.58,0,4.18.93,4.18,3.04v.25c-1.01-.76-2.53-1.27-4.52-1.27-3.97,0-6.33,2.19-6.33,5.06s2.4,5.02,6.2,5.02c2.45,0,4.09-.72,5.02-1.56v.93h4.98v-9.37c0-3.63-2.83-6.37-8.02-6.37h0ZM61.74,30.43c-1.65,0-2.62-.89-2.62-2.07s.97-2.07,2.62-2.07,2.74.84,2.74,2.07-1.14,2.07-2.74,2.07Z"></path><path d="M84.86,19.84c-1.22-1.69-3.17-2.74-5.49-2.74-4.05,0-7.22,3.59-7.22,8.23s3.17,8.1,7.22,8.1c2.57,0,4.6-1.1,5.82-2.95v2.45h4.98V0h-5.32v19.84ZM81.27,28.83c-2.03,0-3.59-1.6-3.59-3.55,0-2.07,1.56-3.59,3.59-3.59s3.63,1.52,3.63,3.59-1.65,3.55-3.63,3.55Z"></path><path d="M112.21,17.26c-2.74,0-4.22,1.77-4.81,2.91-.8-1.86-2.49-2.91-4.52-2.91-2.36,0-3.88,1.6-4.56,2.74v-2.41h-5.15v15.32h5.36v-8.61c0-1.39.72-2.32,2.07-2.32,1.22,0,1.98.72,1.98,2.57v8.36h5.36v-8.36c0-1.9.97-2.57,2.07-2.57,1.27,0,1.98.72,1.98,2.57v8.36h5.36v-10c0-3.5-2.11-5.66-5.15-5.66h0Z"></path><path d="M127.86,17.18c-2.15,0-3.59.17-5.78.63l.93,4.09c1.56-.38,2.53-.46,3.33-.46,2.58,0,4.18.93,4.18,3.04v.25c-1.01-.76-2.53-1.27-4.52-1.27-3.97,0-6.33,2.19-6.33,5.06s2.4,5.02,6.2,5.02c2.45,0,4.09-.72,5.02-1.56v.93h4.98v-9.37c0-3.63-2.83-6.37-8.02-6.37h0ZM127.82,30.43c-1.65,0-2.62-.89-2.62-2.07s.97-2.07,2.62-2.07,2.74.84,2.74,2.07-1.14,2.07-2.74,2.07Z"></path><path d="M150.6,17.1c-2.45,0-4.09.85-5.11,1.94v-1.44h-5.32v15.32h5.36v-8.44c0-1.65,1.06-2.49,2.41-2.49s2.41.85,2.41,2.49v8.44h5.36v-9.79c0-3.71-2.11-6.03-5.53-6.03Z"></path></svg>